<svg xmlns="http://www.w3.org/2000/svg" xmlns:xlink="http://www.w3.org/1999/xlink" version="1.1" style="" xml:space="preserve" width="512" height="512"><rect id="backgroundrect" width="100%" height="100%" x="0" y="0" fill="none" stroke="none"/>
















<g class="currentLayer" style=""><title>Layer 1</title><g id="svg_1" class="" fill="#6767e7" fill-opacity="1" stroke="#8a8ae9" stroke-opacity="1">
	<g id="svg_2" fill="#6767e7" fill-opacity="1" stroke="#8a8ae9" stroke-opacity="1">
		<path d="M424.385,20.072716059684755 C401.182,6.150716059684753 376.445,-0.6172839403152466 348.761,-0.6172839403152466 c-33.122,0 -65.635,9.753 -97.077,19.185 c-30.716,9.214 -59.729,17.917 -88.446,17.919 c-0.004000000000000001,0 -0.007000000000000002,0 -0.011000000000000003,0 c-19.199,0 -36.583,-4.064 -52.894,-12.382 V14.382716059684753 c0,-8.284 -6.716,-15 -15,-15 s-15,6.716 -15,15 v18.551 v203.896 V496.38271605968475 c0,8.284 6.716,15 15,15 s15,-6.716 15,-15 V260.8357160596847 c16.567,6.4 34.052,9.547 52.906,9.547 c33.121,0 65.631,-9.753 97.071,-19.185 c30.718,-9.215 59.733,-17.919 88.451,-17.919 c22.092,0 41.779,5.369 60.188,16.415 c4.633,2.7800000000000002 10.404,2.854 15.108,0.19100000000000003 c4.703,-2.6630000000000003 7.609,-7.649 7.609,-13.053 V32.93471605968475 C431.667,27.665716059684755 428.903,22.782716059684752 424.385,20.072716059684755 zM251.691,222.46371605968474 C220.972,231.67871605968475 191.957,240.38271605968475 163.24,240.38271605968475 c-19.206,0 -36.594,-4.058 -52.906,-12.376 V56.948716059684756 c16.564,6.399 34.046,9.539 52.894,9.538 c0.003000000000000001,0 0.010000000000000002,0 0.014000000000000002,0 c33.118,-0.0020000000000000005 65.626,-9.754 97.063,-19.185 C291.024,38.086716059684754 320.042,29.382716059684753 348.761,29.382716059684753 c19.206,0 36.594,4.058 52.905,12.375 v171.06 c-16.566,-6.4 -34.052,-9.539 -52.905,-9.539 C315.641,203.27871605968474 283.13,213.03171605968475 251.691,222.46371605968474 z" id="svg_3" fill="#6767e7" fill-opacity="1" stroke="#8a8ae9" stroke-opacity="1"/>
	</g>
</g><g id="svg_4">
</g><g id="svg_5">
</g><g id="svg_6">
</g><g id="svg_7">
</g><g id="svg_8">
</g><g id="svg_9">
</g><g id="svg_10">
</g><g id="svg_11">
</g><g id="svg_12">
</g><g id="svg_13">
</g><g id="svg_14">
</g><g id="svg_15">
</g><g id="svg_16">
</g><g id="svg_17">
</g><g id="svg_18">
</g><rect fill="#6767e7" stroke="#6767e7" stroke-dashoffset="" fill-rule="nonzero" id="svg_20" x="99" y="36" width="309" height="195" style="color: rgb(0, 0, 0);"/><path fill="#6767e7" fill-opacity="1" stroke="#6767e7" stroke-opacity="1" stroke-width="1" stroke-dasharray="none" stroke-linejoin="miter" stroke-linecap="butt" stroke-dashoffset="" fill-rule="nonzero" opacity="1" marker-start="" marker-mid="" marker-end="" d="M292,37.5 C292,29.488950276243095 315.2707182320442,23 344,23 C372.7292817679558,23 396,29.488950276243095 396,37.5 C396,45.511049723756905 372.7292817679558,52 344,52 C315.2707182320442,52 292,45.511049723756905 292,37.5 Z" id="svg_22"/><path fill="#6767e7" fill-opacity="1" stroke="#6767e7" stroke-opacity="1" stroke-width="1" stroke-dasharray="none" stroke-linejoin="miter" stroke-linecap="butt" stroke-dashoffset="" fill-rule="nonzero" opacity="1" marker-start="" marker-mid="" marker-end="" d="M110,232.5 C110,224.4889502762431 135.060773480663,218 166,218 C196.939226519337,218 222,224.4889502762431 222,232.5 C222,240.5110497237569 196.939226519337,247 166,247 C135.060773480663,247 110,240.5110497237569 110,232.5 Z" id="svg_24"/></g></svg>